<svg xmlns="http://www.w3.org/2000/svg" version="1.1" xmlns:xlink="http://www.w3.org/1999/xlink" xmlns:svgjs="http://svgjs.dev/svgjs" width="2000" height="1663" viewBox="0 0 2000 1663"><g transform="matrix(1,0,0,1,-0.2414072416788713,0.6732978623679173)"><svg viewBox="0 0 297 247" data-background-color="#ffffff" preserveAspectRatio="xMidYMid meet" height="1663" width="2000" xmlns="http://www.w3.org/2000/svg" xmlns:xlink="http://www.w3.org/1999/xlink"><g id="tight-bounds" transform="matrix(1,0,0,1,0.035848975389313864,-0.0999972507487712)"><svg viewBox="0 0 296.9282798833819 247.2" height="247.2" width="296.9282798833819"><g><svg viewBox="0 0 296.9282798833819 247.2" height="247.2" width="296.9282798833819"><g><svg viewBox="0 0 296.9282798833819 247.2" height="247.2" width="296.9282798833819"><g id="textblocktransform"><svg viewBox="0 0 296.9282798833819 247.2" height="247.2" width="296.9282798833819" id="textblock"><g><svg viewBox="0 0 296.9282798833819 247.2" height="247.2" width="296.9282798833819"><g transform="matrix(1,0,0,1,0,0)"><svg width="296.9282798833819" viewBox="1.649999976158142 -34.29999923706055 41.19999694824219 34.29999923706055" height="247.2" data-palette-color="#ff0600"><path d="M39.5-6.35L42.85-6.35 42.85 0 25.5 0 25.5-6.35 29.3-6.35 21.7-14.7 15.35-9.6 15.35-6.35 20.45-6.35 20.45 0 1.65 0 1.65-6.35 7.25-6.35 7.25-27.95 1.65-27.95 1.65-34.3 20.45-34.3 20.45-27.95 15.35-27.95 15.35-16.8 29.25-27.95 24.75-27.95 24.75-34.3 42-34.3 42-27.95 38.2-27.95 27.35-19.25 39.5-6.35Z" opacity="1" transform="matrix(1,0,0,1,0,0)" fill="#ff0600" class="undefined-text-0" data-fill-palette-color="primary" id="text-0"></path></svg></g></svg></g></svg></g></svg></g><g></g></svg></g><defs></defs></svg><rect width="296.9282798833819" height="247.2" fill="none" stroke="none" visibility="hidden"></rect></g></svg></g></svg>